<?xml version="1.0" encoding="UTF-8"?>
<svg version="1.1" xmlns="http://www.w3.org/2000/svg" width="1235" height="339">
<path d="M0 0 C407.55 0 815.1 0 1235 0 C1235 111.87 1235 223.74 1235 339 C827.45 339 419.9 339 0 339 C0 227.13 0 115.26 0 0 Z " fill="#FEFEFE" transform="translate(0,0)"/>
<path d="M0 0 C0.6778656 0.00248749 1.3557312 0.00497498 2.05413818 0.00753784 C40.35438799 0.22407278 73.77251325 14.6150223 101.875 40.3125 C102.76960937 41.12332031 103.66421875 41.93414062 104.5859375 42.76953125 C123.25281421 60.52367424 135.49351443 84.61273218 141.875 109.3125 C142.308125 110.91158203 142.308125 110.91158203 142.75 112.54296875 C151.35642273 145.18944727 145.30964878 179.35715886 131.3125 209.4375 C130.94874268 210.21955811 130.58498535 211.00161621 130.21020508 211.80737305 C128.42280064 215.52121563 126.53792458 218.91462695 124.09765625 222.2421875 C121.67953559 224.95077798 121.67953559 224.95077798 121.875 227.3125 C129.465 231.2725 137.055 235.2325 144.875 239.3125 C144.875 239.6425 144.875 239.9725 144.875 240.3125 C129.35347497 242.32887188 113.83044571 244.33450288 98.30175781 246.29504395 C96.89653712 246.47280599 95.49142523 246.65143031 94.08642578 246.83093262 C92.11651472 247.08238818 90.14615641 247.33033237 88.17578125 247.578125 C86.49222534 247.79130371 86.49222534 247.79130371 84.7746582 248.00878906 C81.875 248.3125 81.875 248.3125 77.875 248.3125 C78.28757055 232.99204472 78.81913535 217.68024634 79.68902588 202.37838745 C79.77110781 200.92195057 79.85018629 199.4653412 79.9262085 198.00857544 C80.03426491 195.96081535 80.15408069 193.91408156 80.27734375 191.8671875 C80.34429443 190.69655762 80.41124512 189.52592773 80.48022461 188.31982422 C80.85032426 185.50047509 81.41637657 183.72220657 82.875 181.3125 C83.67164063 182.94058594 83.67164063 182.94058594 84.484375 184.6015625 C85.1976991 186.04698239 85.91125301 187.49228889 86.625 188.9375 C87.14707031 190.00677734 87.14707031 190.00677734 87.6796875 191.09765625 C89.81218358 195.40213907 92.1188475 199.37691288 94.875 203.3125 C110.40180699 173.99264858 115.74257594 143.40891941 106.22558594 111.10839844 C101.7375387 96.95177781 94.59284419 84.54117985 84.875 73.3125 C84.23433594 72.51585938 83.59367188 71.71921875 82.93359375 70.8984375 C66.13354137 50.81488342 39.81133033 38.37334747 13.9855957 35.48901367 C-16.5095809 32.93863626 -46.1765574 40.74550567 -69.84375 60.47265625 C-90.77151194 78.42383523 -104.51703144 102.80313425 -108.125 130.3125 C-109.55966465 150.96057413 -108.37516827 171.51551083 -99.125 190.3125 C-98.67253906 191.30378906 -98.22007813 192.29507813 -97.75390625 193.31640625 C-91.97778002 205.57306435 -83.67040964 215.76709036 -74.125 225.3125 C-74.37304688 227.05273438 -74.37304688 227.05273438 -75.125 229.3125 C-75.42986328 230.25931641 -75.73472656 231.20613281 -76.04882812 232.18164062 C-76.59700195 233.80875977 -76.59700195 233.80875977 -77.15625 235.46875 C-77.55457031 236.65597656 -77.95289062 237.84320313 -78.36328125 239.06640625 C-79.20442708 241.56380208 -80.04557292 244.06119792 -80.88671875 246.55859375 C-81.28503906 247.74582031 -81.68335938 248.93304688 -82.09375 250.15625 C-82.64192383 251.78336914 -82.64192383 251.78336914 -83.20117188 253.44335938 C-83.93605792 255.72570103 -84.5858577 257.97809854 -85.125 260.3125 C-90.45000129 258.79107106 -93.83480294 255.28423917 -97.75 251.5625 C-98.81287231 250.55376831 -98.81287231 250.55376831 -99.8972168 249.5246582 C-120.72618386 229.37574357 -134.13181454 203.73971074 -140.58984375 175.62176514 C-140.93005655 174.15370499 -141.28111644 172.68808446 -141.64663696 171.22612 C-142.92209 165.94223498 -143.46797717 160.95438711 -143.53125 155.52734375 C-143.54509735 154.71677017 -143.5589447 153.90619659 -143.57321167 153.07106018 C-143.60761694 150.46384102 -143.62039005 147.85743561 -143.625 145.25 C-143.62767883 144.35877441 -143.63035767 143.46754883 -143.63311768 142.54931641 C-143.62346043 127.7237732 -142.03263652 114.38620589 -137.125 100.3125 C-136.64045622 98.82166943 -136.15607297 97.33078667 -135.671875 95.83984375 C-128.80489088 75.57062974 -116.87618823 58.59660688 -102.125 43.3125 C-101.33609375 42.46042969 -100.5471875 41.60835937 -99.734375 40.73046875 C-74.09068888 13.77063317 -36.77455619 -0.16239542 0 0 Z " fill="#4998D7" transform="translate(160.125,29.6875)"/>
<path d="M0 0 C18.5050209 15.45989088 27.80525074 37.42491082 33.8125 60.1875 C33.99949463 60.8465332 34.18648926 61.50556641 34.37915039 62.18457031 C35.10112766 65.52152894 34.86925531 68.78218132 34.8125 72.1875 C1.0826276 90.29318083 -39.7076848 96.69879839 -76.90234375 85.8984375 C-88.17709667 82.33925921 -98.71153592 77.68884427 -109.1875 72.1875 C-107.43951447 48.69991463 -97.66485164 24.25554915 -81.1875 7.1875 C-80.54554687 6.46949219 -79.90359375 5.75148437 -79.2421875 5.01171875 C-57.04612689 -18.84679984 -25.05765153 -19.24274613 0 0 Z " fill="#343848" transform="translate(198.1875,228.8125)"/>
<path d="M0 0 C17.16 0 34.32 0 52 0 C57.6811329 19.31585185 57.6811329 19.31585185 59.625 27.4375 C61.23482283 34.02388817 62.95215115 40.53310888 65 47 C67.0289199 41.16054806 68.76942782 35.322816 70.2265625 29.31640625 C70.41971039 28.53482651 70.61285828 27.75324677 70.81185913 26.94798279 C71.41968802 24.48698889 72.02276044 22.02486712 72.625 19.5625 C73.23484627 17.07526025 73.84577195 14.58830457 74.45956421 12.10203552 C74.83927305 10.56345385 75.21665857 9.02429652 75.59146118 7.48451233 C76.88777814 2.22444372 76.88777814 2.22444372 78 0 C95.16 0 112.32 0 130 0 C130 5.94 130 11.88 130 18 C127.69 18 125.38 18 123 18 C123 37.47 123 56.94 123 77 C125.31 77 127.62 77 130 77 C130 82.94 130 88.88 130 95 C115.81 95 101.62 95 87 95 C87 89.06 87 83.12 87 77 C89.64 77 92.28 77 95 77 C94.67 60.5 94.34 44 94 27 C92.68 33.27 91.36 39.54 90 46 C88.125 52.1875 88.125 52.1875 87.13671875 55.22265625 C85.25532783 61.47456352 83.74689489 67.82072375 82.19384766 74.16088867 C77.43377828 93.56622172 77.43377828 93.56622172 76 95 C73.85441173 95.08775605 71.70595579 95.10695219 69.55859375 95.09765625 C68.25341797 95.09443359 66.94824219 95.09121094 65.60351562 95.08789062 C64.2148431 95.07953401 62.82617123 95.07106905 61.4375 95.0625 C60.04492344 95.05748666 58.65234519 95.05292347 57.25976562 95.04882812 C53.8398013 95.03699434 50.41992156 95.0205088 47 95 C46.8141333 94.30664551 46.6282666 93.61329102 46.43676758 92.89892578 C41.68955731 75.20038963 36.92537816 57.51041607 31.796875 39.91796875 C31.08387835 37.30714277 30.53077507 34.65387535 30 32 C29.67 46.85 29.34 61.7 29 77 C31.64 77 34.28 77 37 77 C37 82.94 37 88.88 37 95 C24.79 95 12.58 95 0 95 C0 89.06 0 83.12 0 77 C2.31 77 4.62 77 7 77 C7 57.53 7 38.06 7 18 C4.69 18 2.38 18 0 18 C0 12.06 0 6.12 0 0 Z " fill="#353949" transform="translate(533,116)"/>
<path d="M0 0 C17.49 0 34.98 0 53 0 C60.64253049 24.01938153 60.64253049 24.01938153 62.96289062 31.61621094 C64.03586488 35.11701678 65.12217348 38.61347835 66.21081543 42.10943604 C67.2862755 45.5649204 68.35763061 49.02167155 69.42871094 52.47851562 C69.98193427 54.26119723 70.53665198 56.04341568 71.09277344 57.82519531 C71.90432935 60.42653032 72.71050555 63.02947932 73.515625 65.6328125 C73.76556213 66.42962433 74.01549927 67.22643616 74.27301025 68.0473938 C75.22203202 71.13076863 76 73.75409492 76 77 C79.3 77 82.6 77 86 77 C86 82.94 86 88.88 86 95 C67.85 95 49.7 95 31 95 C31 89.06 31 83.12 31 77 C36.94 76.505 36.94 76.505 43 76 C42.505 72.04 42.505 72.04 42 68 C32.43 68 22.86 68 13 68 C12.67 69.98 12.34 71.96 12 74 C11.505 75.485 11.505 75.485 11 77 C14.3 77 17.6 77 21 77 C21 82.94 21 88.88 21 95 C6.81 95 -7.38 95 -22 95 C-22 89.06 -22 83.12 -22 77 C-17.545 76.505 -17.545 76.505 -13 76 C-12.8141333 75.38181396 -12.6282666 74.76362793 -12.43676758 74.12670898 C-6.29479436 53.7323295 -6.29479436 53.7323295 -3.375 45.1875 C-1.20002854 38.79221967 0.63521876 32.33194836 2.38916016 25.8112793 C3.90717984 20.18564033 3.90717984 20.18564033 5 18 C3.35 18 1.7 18 0 18 C0 12.06 0 6.12 0 0 Z " fill="#343848" transform="translate(1027,116)"/>
<path d="M0 0 C27.06 0 54.12 0 82 0 C82 9.9 82 19.8 82 30 C74.08 30 66.16 30 58 30 C58 26.04 58 22.08 58 18 C50.74 18 43.48 18 36 18 C36 24.27 36 30.54 36 37 C44.91 37 53.82 37 63 37 C63 42.94 63 48.88 63 55 C54.42 55 45.84 55 37 55 C37 62.26 37 69.52 37 77 C43.93 77 50.86 77 58 77 C58 72.71 58 68.42 58 64 C65.92 64 73.84 64 82 64 C82 74.23 82 84.46 82 95 C54.94 95 27.88 95 0 95 C0 89.06 0 83.12 0 77 C2.64 77 5.28 77 8 77 C8 57.53 8 38.06 8 18 C5.36 18 2.72 18 0 18 C0 12.06 0 6.12 0 0 Z " fill="#353949" transform="translate(689,116)"/>
<path d="M0 0 C27.06 0 54.12 0 82 0 C82 9.9 82 19.8 82 30 C74.08 30 66.16 30 58 30 C58 26.04 58 22.08 58 18 C50.74 18 43.48 18 36 18 C36 24.27 36 30.54 36 37 C44.58 37 53.16 37 62 37 C62 42.94 62 48.88 62 55 C53.75 55 45.5 55 37 55 C37 62.26 37 69.52 37 77 C43.93 77 50.86 77 58 77 C58 72.71 58 68.42 58 64 C65.92 64 73.84 64 82 64 C82 74.23 82 84.46 82 95 C54.94 95 27.88 95 0 95 C0 89.06 0 83.12 0 77 C2.64 77 5.28 77 8 77 C8 57.53 8 38.06 8 18 C5.36 18 2.72 18 0 18 C0 12.06 0 6.12 0 0 Z " fill="#353848" transform="translate(899,116)"/>
<path d="M0 0 C7.29164448 -0.07476447 14.58306042 -0.12889055 21.875 -0.16479492 C24.3499745 -0.17978012 26.8249229 -0.20017524 29.29980469 -0.22631836 C65.90399321 -0.60299584 65.90399321 -0.60299584 76 9 C82.32154576 17.04283413 82.87214594 25.05553132 82 35 C80.01374338 41.8405609 76.14475181 47.33611995 70 51 C61.41627787 54.88578978 53.45638058 56.1644971 44.125 56.0625 C40.103125 56.0315625 40.103125 56.0315625 36 56 C36 62.93 36 69.86 36 77 C38.64 77 41.28 77 44 77 C44 82.94 44 88.88 44 95 C29.48 95 14.96 95 0 95 C0 89.06 0 83.12 0 77 C2.64 77 5.28 77 8 77 C8 57.53 8 38.06 8 18 C5.36 18 2.72 18 0 18 C0 12.06 0 6.12 0 0 Z " fill="#353948" transform="translate(1137,116)"/>
<path d="M0 0 C29.7 0 59.4 0 90 0 C90 11.55 90 23.1 90 35 C83.73 35 77.46 35 71 35 C71 29.39 71 23.78 71 18 C67.04 18 63.08 18 59 18 C59 37.47 59 56.94 59 77 C62.63 77 66.26 77 70 77 C70 82.94 70 88.88 70 95 C53.5 95 37 95 20 95 C20 89.06 20 83.12 20 77 C23.63 77 27.26 77 31 77 C31 57.53 31 38.06 31 18 C27.04 18 23.08 18 19 18 C19 23.61 19 29.22 19 35 C12.73 35 6.46 35 0 35 C0 23.45 0 11.9 0 0 Z " fill="#333747" transform="translate(347,116)"/>
<path d="M0 0 C14.19 0 28.38 0 43 0 C43 5.94 43 11.88 43 18 C40.36 18 37.72 18 35 18 C35 37.47 35 56.94 35 77 C40.94 77 46.88 77 53 77 C53 71.39 53 65.78 53 60 C60.59 60 68.18 60 76 60 C76 71.55 76 83.1 76 95 C50.92 95 25.84 95 0 95 C0 89.06 0 83.12 0 77 C2.31 77 4.62 77 7 77 C7 57.53 7 38.06 7 18 C4.69 18 2.38 18 0 18 C0 12.06 0 6.12 0 0 Z " fill="#343848" transform="translate(797,116)"/>
<path d="M0 0 C8.19497117 5.21725645 13.90399712 11.71199137 17 21 C17.9023159 33.07032418 16.82615575 42.77572177 8.9375 52.375 C3.05526585 58.5007041 -4.74088623 62.43786888 -13.26171875 63.203125 C-23.30260854 63.39715186 -31.25730715 60.45953471 -39 54 C-45.92160168 46.71648451 -49.37534761 37.50866918 -49.2109375 27.49609375 C-48.37358895 17.5874692 -43.85400429 10.45189084 -36.75 3.75 C-26.63452582 -4.31593366 -11.5804376 -6.24208706 0 0 Z " fill="#353948" transform="translate(177,139)"/>
<path d="M0 0 C14.85 0 29.7 0 45 0 C45 5.94 45 11.88 45 18 C42.36 18 39.72 18 37 18 C37 37.47 37 56.94 37 77 C39.64 77 42.28 77 45 77 C45 82.94 45 88.88 45 95 C30.15 95 15.3 95 0 95 C0 89.06 0 83.12 0 77 C2.97 77 5.94 77 9 77 C9 57.53 9 38.06 9 18 C6.03 18 3.06 18 0 18 C0 12.06 0 6.12 0 0 Z " fill="#343847" transform="translate(462,116)"/>
<path d="M0 0 C12.05357143 -0.66964286 12.05357143 -0.66964286 15.6875 2.375 C19.09190413 6.23945874 19.39594301 8.65306627 19.35546875 13.671875 C18.75147582 17.62769681 16.89542195 19.30658423 14 22 C11 23 11 23 0 23 C0 15.41 0 7.82 0 0 Z " fill="#FCFCFC" transform="translate(1173,134)"/>
<path d="M0 0 C2.1993808 2.1993808 2.59489702 3.39423373 3.47265625 6.32421875 C3.86227539 7.62069336 3.86227539 7.62069336 4.25976562 8.94335938 C4.52466797 9.84892578 4.78957031 10.75449219 5.0625 11.6875 C5.33126953 12.57373047 5.60003906 13.45996094 5.87695312 14.37304688 C7.35178677 19.34187545 8.25532393 23.78726749 9 29 C3.39 29 -2.22 29 -8 29 C-6.61848533 22.62575557 -5.09559655 16.30765511 -3.4375 10 C-3.10588867 8.71416016 -3.10588867 8.71416016 -2.76757812 7.40234375 C-2.55423828 6.58894531 -2.34089844 5.77554688 -2.12109375 4.9375 C-1.9295874 4.20402344 -1.73808105 3.47054687 -1.54077148 2.71484375 C-1 1 -1 1 0 0 Z " fill="#F2F2F3" transform="translate(1054,139)"/>
<path d="M0 0 C2.54301233 1.03221903 3.14253297 2.08029225 4.49267578 4.44628906 C5.1365625 5.55810547 5.1365625 5.55810547 5.79345703 6.69238281 C6.22787109 7.47226563 6.66228516 8.25214844 7.10986328 9.05566406 C7.55201172 9.82007812 7.99416016 10.58449219 8.44970703 11.37207031 C10.57943738 15.09748987 12.54102972 18.74995181 13.98486328 22.80566406 C8.35986328 26.80566406 8.35986328 26.80566406 4.98486328 26.80566406 C2.97437377 23.37419692 0.97831084 19.93455494 -1.01513672 16.49316406 C-1.58748047 15.51669922 -2.15982422 14.54023437 -2.74951172 13.53417969 C-3.29091797 12.59638672 -3.83232422 11.65859375 -4.39013672 10.69238281 C-5.14423828 9.39627075 -5.14423828 9.39627075 -5.91357422 8.07397461 C-7.01513672 5.80566406 -7.01513672 5.80566406 -7.01513672 2.80566406 C-3.03192093 -0.29239267 -3.03192093 -0.29239267 0 0 Z " fill="#3B3F4E" transform="translate(114.01513671875,85.1943359375)"/>
<path d="M0 0 C1.32 2.64 2.64 5.28 4 8 C-1.01327929 11.45612436 -6.11651982 14.76253297 -11.3125 17.9375 C-12.29863281 18.54464844 -13.28476563 19.15179688 -14.30078125 19.77734375 C-17 21 -17 21 -19.16796875 21.12890625 C-22.21024379 19.2542421 -22.82032668 16.24410164 -24 13 C-23.51120361 12.71278076 -23.02240723 12.42556152 -22.51879883 12.12963867 C-20.28322788 10.81582711 -18.04786236 9.50166642 -15.8125 8.1875 C-15.04357422 7.73568359 -14.27464844 7.28386719 -13.48242188 6.81835938 C-12.73154297 6.37685547 -11.98066406 5.93535156 -11.20703125 5.48046875 C-10.11382568 4.83924072 -10.11382568 4.83924072 -8.99853516 4.18505859 C-7.34388531 3.20391147 -5.70659074 2.19356192 -4.07421875 1.17578125 C-2 0 -2 0 0 0 Z " fill="#3C3F4F" transform="translate(95,208)"/>
<path d="M0 0 C5.03214965 1.80011857 9.59261018 4.41256121 14.25 7 C15.07757813 7.45117188 15.90515625 7.90234375 16.7578125 8.3671875 C17.54414062 8.80289063 18.33046875 9.23859375 19.140625 9.6875 C19.85766602 10.08324219 20.57470703 10.47898438 21.31347656 10.88671875 C23 12 23 12 24 14 C23.22265625 15.7265625 23.22265625 15.7265625 22.0625 17.625 C21.381875 18.73875 20.70125 19.8525 20 21 C14.53520151 19.46602148 10.0218192 16.88493047 5.1875 14 C4.41212891 13.54882812 3.63675781 13.09765625 2.83789062 12.6328125 C-2.87211762 9.25576475 -2.87211762 9.25576475 -4 7 C-3.22265625 5.2734375 -3.22265625 5.2734375 -2.0625 3.375 C-1.381875 2.26125 -0.70125 1.1475 0 0 Z " fill="#3B3E4E" transform="translate(75,120)"/>
<path d="M0 0 C0.99 0 1.98 0 3 0 C6 5.625 6 5.625 6 9 C2.57204403 11.03736586 -0.86875165 13.05196199 -4.3125 15.0625 C-5.28896484 15.64322266 -6.26542969 16.22394531 -7.27148438 16.82226562 C-8.20927734 17.36689453 -9.14707031 17.91152344 -10.11328125 18.47265625 C-10.97735596 18.98062744 -11.84143066 19.48859863 -12.73168945 20.01196289 C-15 21 -15 21 -18 20 C-19.8125 17.6875 -19.8125 17.6875 -21 15 C-19.81906673 11.45720019 -18.13499717 10.17421279 -14.90234375 8.45703125 C-14.10119141 8.02326172 -13.30003906 7.58949219 -12.47460938 7.14257812 C-11.21874023 6.48418945 -11.21874023 6.48418945 -9.9375 5.8125 C-8.27932957 4.92433055 -6.62174523 4.03506573 -4.96484375 3.14453125 C-3.86064087 2.56215698 -3.86064087 2.56215698 -2.73413086 1.96801758 C-1.0282464 1.11916935 -1.0282464 1.11916935 0 0 Z " fill="#3A3E4D" transform="translate(245,120)"/>
<path d="M0 0 C3.33822957 0.61449997 6.02209492 1.34560829 9 3 C7.96089052 8.09917254 5.20639962 12.22962142 2.625 16.6875 C2.13 17.56728516 1.635 18.44707031 1.125 19.35351562 C0.40183594 20.60745117 0.40183594 20.60745117 -0.3359375 21.88671875 C-0.99408447 23.03466919 -0.99408447 23.03466919 -1.66552734 24.20581055 C-3 26 -3 26 -6 27 C-9.1875 25.0625 -9.1875 25.0625 -12 23 C-10.46688715 17.48431813 -7.81247556 12.97965148 -4.875 8.125 C-4.40707031 7.34125 -3.93914062 6.5575 -3.45703125 5.75 C-2.30981892 3.83017528 -1.1573993 1.91369439 0 0 Z " fill="#3A3E4D" transform="translate(207,85)"/>
<path d="M0 0 C8.91 0 17.82 0 27 0 C27 2.97 27 5.94 27 9 C18.09 9 9.18 9 0 9 C0 6.03 0 3.06 0 0 Z " fill="#333747" transform="translate(236,170)"/>
<path d="M0 0 C2.97 0 5.94 0 9 0 C9 8.91 9 17.82 9 27 C6.03 27 3.06 27 0 27 C0 18.09 0 9.18 0 0 Z " fill="#333747" transform="translate(157,73)"/>
<path d="M0 0 C8.58 0 17.16 0 26 0 C26 2.97 26 5.94 26 9 C17.42 9 8.84 9 0 9 C0 6.03 0 3.06 0 0 Z " fill="#333747" transform="translate(60,170)"/>
<path d="M0 0 C0.33 0 0.66 0 1 0 C1.36086872 2.47836284 1.71398157 4.95739787 2.0625 7.4375 C2.16626953 8.14455078 2.27003906 8.85160156 2.37695312 9.58007812 C2.62689163 11.38135907 2.81801314 13.19059041 3 15 C2.67 15.33 2.34 15.66 2 16 C1.83989519 18.73701178 1.74053172 21.4516759 1.68359375 24.19140625 C1.66281265 25.01124496 1.64203156 25.83108368 1.62062073 26.67576599 C1.55503506 29.30458901 1.49619874 31.93351504 1.4375 34.5625 C1.39432333 36.34050561 1.35070933 38.11850065 1.30664062 39.89648438 C1.19934457 44.26421634 1.09810296 48.63205227 1 53 C0.67 53 0.34 53 0 53 C0 35.51 0 18.02 0 0 Z " fill="#E2E2E5" transform="translate(562,140)"/>
<path d="M0 0 C2.35953094 2.35953094 2.49141413 3.77895617 3 7 C2.01 6.67 1.02 6.34 0 6 C-0.99 6.495 -0.99 6.495 -2 7 C-1.34 4.69 -0.68 2.38 0 0 Z " fill="#BEBFC4" transform="translate(1054,139)"/>
</svg>
